<svg width="987" height="846" fill="none" xmlns="http://www.w3.org/2000/svg"><path d="M140.532 5.886H0v607.362c0 137.927 98.13 227.673 243.508 229.879 145.377 2.205 230.181-133.088 230.181-229.879V147.443s176.876-24.197 176.876 81.062v384.743c0 72.593-163.55 81.063-163.55 81.063s-48.459 130.667-133.263 148.816c0 0 448.248 45.975 448.248-229.879V228.505C802-57.027 319.831 5.886 319.831 5.886v607.362s0 96.791-76.323 96.791c-102.976 0-102.976-96.791-102.976-96.791V5.886Z" fill="#FFCD4D"/><path d="M320 5.886v607.362c0-96.79 153.804-465.805 153.804-465.805s176.814-24.197 176.814 81.062v384.743c0 72.593-163.492 81.063-163.492 81.063S438.683 824.978 353.91 843.127c0 0 448.09 45.975 448.09-229.879V228.505C802-57.027 320 5.886 320 5.886Z" fill="#AE3419"/><path fill="#fff" d="M650 344h153v154H650z"/><path d="M539.939 468h-18.164c-.439 0-.683-.244-.732-.732l-17.725-103.052c-.097-.391.049-.586.44-.586h16.846c.39 0 .634.195.732.586l9.595 67.749 9.887-67.749c.098-.391.391-.586.879-.586h13.55c.391 0 .635.195.732.586l9.742 67.749 9.741-67.749c.098-.391.342-.586.732-.586h16.7c.488 0 .683.195.585.586l-17.871 103.052c-.048.195-.195.366-.439.512l-.293.22h-18.164c-.293 0-.537-.244-.733-.732l-7.69-53.833-7.617 53.833c-.049.488-.293.732-.733.732Zm149.054 0h-16.992c-.488 0-.732-.244-.732-.732l.146-103.052c0-.391.195-.586.586-.586h16.846c.39 0 .586.195.586.586l.146 103.052c0 .488-.195.732-.586.732Zm100.348 0h-16.992c-.391 0-.586-.244-.586-.732l.293-103.052c0-.391.195-.586.586-.586h30.322c5.42 0 10.4 1.318 14.941 3.955s8.155 6.177 10.84 10.62c2.734 4.443 4.102 9.473 4.102 15.088 0 3.662-.562 6.982-1.685 9.961-1.123 2.978-2.441 5.493-3.955 7.544-1.465 2.051-2.808 3.564-4.028 4.541 5.42 6.006 8.13 13.061 8.13 21.167l.146 30.762c0 .488-.244.732-.732.732H813.73c-.39 0-.585-.146-.585-.439v-31.055c0-3.613-1.27-6.738-3.809-9.375-2.539-2.637-5.664-3.955-9.375-3.955h-9.888l-.146 44.092c0 .488-.196.732-.586.732Zm13.623-86.426h-12.891v23.584h12.891c3.076 0 5.81-1.147 8.203-3.442 2.441-2.295 3.662-5.103 3.662-8.423 0-3.174-1.172-5.908-3.516-8.203-2.343-2.344-5.126-3.516-8.349-3.516ZM962.198 468h-48.486c-.391 0-.586-.244-.586-.732l.146-103.052c0-.391.196-.586.586-.586h48.194c.39 0 .586.244.586.732v16.773c0 .39-.196.586-.586.586H931.29v23.437h30.762c.39 0 .586.196.586.586l.146 16.992c0 .391-.195.586-.586.586H931.29v26.221h30.908c.391 0 .586.244.586.732v17.139c0 .391-.195.586-.586.586Z" fill="#AE3419"/></svg>